<?xml version="1.0" standalone="no"?>
<!DOCTYPE svg PUBLIC "-//W3C//DTD SVG 20010904//EN"
 "http://www.w3.org/TR/2001/REC-SVG-20010904/DTD/svg10.dtd">
<svg version="1.0" xmlns="http://www.w3.org/2000/svg"
 width="905.000000pt" height="1280.000000pt" viewBox="0 0 905.000000 1280.000000"
 preserveAspectRatio="xMidYMid meet">
<metadata>
Created by potrace 1.15, written by Peter Selinger 2001-2017
</metadata>
<g transform="translate(0.000000,1280.000000) scale(0.100000,-0.100000)"
fill="#000000" stroke="none">
<path d="M3252 11014 c-949 -103 -1759 -550 -2204 -1214 -87 -130 -195 -350
-242 -495 -179 -540 -118 -1200 144 -1580 66 -94 223 -246 326 -314 586 -388
1408 -351 1820 81 108 113 182 246 226 408 20 75 23 106 22 270 0 168 -3 194
-27 283 -33 123 -90 254 -153 349 -55 84 -221 253 -309 315 -78 56 -203 117
-285 140 -95 26 -309 23 -510 -7 -101 -15 -202 -24 -290 -24 -125 -1 -139 1
-185 24 -42 21 -55 35 -80 84 -38 76 -47 200 -20 293 135 472 967 928 1770
969 448 23 862 -111 1177 -380 311 -266 569 -781 667 -1331 48 -273 56 -374
56 -745 -1 -270 -5 -392 -18 -510 -84 -747 -250 -1337 -552 -1956 -589 -1211
-1557 -2209 -3305 -3404 -460 -315 -522 -361 -632 -479 -37 -39 -80 -95 -95
-124 -70 -135 -4 -267 135 -267 147 0 555 198 1237 602 928 549 1222 728 1545
939 349 229 776 538 1066 771 1276 1027 2059 2181 2293 3382 175 895 50 1718
-365 2408 -287 477 -755 904 -1284 1173 -365 185 -744 295 -1175 340 -178 19
-580 18 -753 -1z"/>
<path d="M7811 10079 c-126 -22 -253 -93 -349 -194 -151 -159 -213 -377 -167
-594 32 -155 95 -262 228 -387 92 -88 204 -152 312 -179 78 -20 242 -20 320 0
291 74 498 338 499 635 0 119 -14 181 -71 298 -37 79 -58 107 -131 180 -125
124 -223 188 -352 226 -68 20 -217 28 -289 15z"/>
<path d="M7770 7434 c-108 -28 -218 -91 -294 -168 -124 -125 -184 -258 -193
-426 -13 -236 79 -441 272 -603 213 -179 491 -215 735 -96 69 34 101 58 170
128 134 135 192 275 193 461 1 269 -155 503 -434 650 -42 22 -105 46 -140 55
-80 18 -236 18 -309 -1z"/>
</g>
</svg>
